<svg xmlns="http://www.w3.org/2000/svg" viewBox="0 0 497.42 389.47"><defs><style>.cls-1,.cls-13{fill:#ebebeb;}.cls-17,.cls-2{fill:#dbdbdb;}.cls-3{fill:#c7c7c7;}.cls-16,.cls-4{fill:#455a64;}.cls-15,.cls-5{fill:#37474f;}.cls-6,.cls-7{fill:#263238;}.cls-10,.cls-12,.cls-13,.cls-14,.cls-15,.cls-16,.cls-17,.cls-7,.cls-8,.cls-9{stroke:#000;stroke-miterlimit:10;stroke-width:0.5px;}.cls-8{fill:#ffc727;}.cls-9{fill:#00006f;opacity:0.6;}.cls-10{fill:#9f252a;}.cls-11{opacity:0.2;}.cls-14{fill:#c95f50;}</style></defs><g id="Car"><path class="cls-1" d="M489.82,148.78H378s11.09-30.29,28.16-30.29,22.42,20.91,22.42,20.91,11.51-11.36,21-11.36,17.69,15,17.69,15S480.56,135,489.82,148.78Z" transform="translate(-1.29 -53.97)"/><path class="cls-1" d="M181.52,86.41H69.67s11.09-30.3,28.16-30.3S120.24,77,120.24,77s11.52-11.36,21-11.36,17.68,15,17.68,15S172.27,72.6,181.52,86.41Z" transform="translate(-1.29 -53.97)"/><path class="cls-1" d="M392.15,70.89H339.88S351.56,54,360.76,54s11.92,11.28,11.92,11.28,6.49-5.27,12.51-4.33S392.15,70.89,392.15,70.89Z" transform="translate(-1.29 -53.97)"/><path class="cls-1" d="M297.15,127H244.88S256.56,110,265.76,110s11.93,11.28,11.93,11.28,6.49-5.26,12.51-4.32S297.15,127,297.15,127Z" transform="translate(-1.29 -53.97)"/><path class="cls-1" d="M173.16,173.52H120.88s11.68-16.92,20.89-16.92,11.92,11.28,11.92,11.28,6.49-5.27,12.51-4.33S173.16,173.52,173.16,173.52Z" transform="translate(-1.29 -53.97)"/><path class="cls-1" d="M112,186.28H10.18s14-31.12,28.86-33.07,22.05,23.13,22.05,23.13,9.62-8.86,17.19-8.86,13.4,11.67,13.4,11.67S106.81,171.15,112,186.28Z" transform="translate(-1.29 -53.97)"/><path class="cls-2" d="M492.06,240.63S412.34,196.9,354.12,196.9c-57,0-134.29,22.09-155.3,27-55.18,13-126.22,16.69-126.22,16.69Z" transform="translate(-1.29 -53.97)"/><path class="cls-3" d="M7.94,240.63s39.87-29.32,84.91-29.32c31.44,0,76.56,11.81,119.06,18.44,16.18,2.53,100.41,10.88,100.41,10.88Z" transform="translate(-1.29 -53.97)"/><path class="cls-1" d="M289.1,240.94c4.29.2,8.57.66,12.83,1.19s8.52,1.17,12.75,1.92,8.45,1.63,12.62,2.7a67,67,0,0,1,12.21,4.19,19.78,19.78,0,0,1,2.82,1.62,9.67,9.67,0,0,1,2.42,2.23,4,4,0,0,1,.75,3.24,6,6,0,0,1-1.77,2.82,22.57,22.57,0,0,1-5.43,3.57c-1.94,1-3.94,1.77-6,2.53-8.09,3-16.52,4.83-24.72,7.36a249.37,249.37,0,0,0-24.3,8.47,95.26,95.26,0,0,0-11.53,5.63,39.11,39.11,0,0,0-5.25,3.62,13,13,0,0,0-3.9,4.8,5,5,0,0,0-.29,2.93,6.07,6.07,0,0,0,1.42,2.62,16.88,16.88,0,0,0,5.11,3.6A62,62,0,0,0,281,310.16c8.35,2,16.77,3.7,25.21,5.25,33.77,6.37,67.82,11.28,101.53,18.11,8.41,1.79,16.82,3.64,25.07,6.11l3.07,1c1,.36,2.06.64,3.05,1.07l6,2.41c2,.74,3.93,1.75,5.88,2.66s3.91,1.81,5.76,2.92A85.36,85.36,0,0,1,477.21,365l2.22,2.35c.71.8,1.36,1.67,2,2.5l1,1.25.91,1.34c.58.9,1.26,1.74,1.76,2.7s1.11,1.85,1.57,2.82,1,1.92,1.33,2.94l.58,1.5c.18.51.33,1,.49,1.54a21,21,0,0,1,.7,3.14,21.33,21.33,0,0,0-.73-3.14c-.17-.51-.32-1-.5-1.53l-.59-1.49c-.37-1-.92-1.95-1.36-2.92s-1.07-1.86-1.59-2.8-1.19-1.78-1.78-2.68l-.92-1.32-1-1.24c-.69-.83-1.34-1.68-2.05-2.48l-2.23-2.32a84.77,84.77,0,0,0-20.77-15c-1.85-1.1-3.81-2-5.74-2.89s-3.85-1.9-5.87-2.64l-6-2.38c-1-.42-2-.7-3-1.05l-3.06-1c-8.23-2.43-16.63-4.25-25-6-33.7-6.73-67.76-11.52-101.57-17.8Q293.3,314,280.74,311a63.27,63.27,0,0,1-12.24-4.28,17.65,17.65,0,0,1-5.34-3.81,6.77,6.77,0,0,1-1.59-3,5.69,5.69,0,0,1,.33-3.39,13.81,13.81,0,0,1,4.14-5.11,40.34,40.34,0,0,1,5.36-3.67A95.23,95.23,0,0,1,283,282.12a251,251,0,0,1,24.4-8.42c8.23-2.51,16.66-4.31,24.71-7.27,2-.75,4-1.55,5.91-2.49a22,22,0,0,0,5.31-3.46,5.56,5.56,0,0,0,1.64-2.56,3.52,3.52,0,0,0-.66-2.84,9.27,9.27,0,0,0-2.29-2.12,23,23,0,0,0-2.75-1.61,68.43,68.43,0,0,0-12.1-4.27c-4.15-1.1-8.35-2-12.57-2.8s-8.46-1.46-12.72-2S293.39,241.18,289.1,240.94Z" transform="translate(-1.29 -53.97)"/><path class="cls-1" d="M325.71,240.94c8.1.41,16.18,1.25,24.23,2.18s16.1,2.07,24.09,3.49c4,.71,8,1.52,11.93,2.46a95.52,95.52,0,0,1,11.69,3.46,29.87,29.87,0,0,1,5.52,2.67,9.89,9.89,0,0,1,2.36,2,3.53,3.53,0,0,1,.8,3.08,5.37,5.37,0,0,1-1.77,2.63,15.17,15.17,0,0,1-2.52,1.79,38.37,38.37,0,0,1-5.55,2.6A111.14,111.14,0,0,1,384.87,271l-11.76,3.12-23.52,6.22c-7.83,2.11-15.65,4.26-23.4,6.63-3.87,1.19-7.73,2.43-11.52,3.83-1.89.7-3.77,1.44-5.61,2.27a28.94,28.94,0,0,0-5.21,2.89,4.93,4.93,0,0,0-1.78,2.06c-.27.75.24,1.49,1,2a18.3,18.3,0,0,0,5.44,2.21,107.62,107.62,0,0,0,11.91,2.18c8,1.12,16.08,2,24.16,2.72,16.14,1.52,32.32,2.82,48.45,4.61s32.22,4,48.1,7.4,31.54,8,46.22,15c-14.75-6.81-30.47-11.2-46.32-14.49s-32-5.5-48.07-7.24-32.3-3-48.46-4.43c-8.08-.74-16.16-1.55-24.21-2.64a108.24,108.24,0,0,1-12-2.17,18.53,18.53,0,0,1-5.77-2.35,4,4,0,0,1-1.17-1.25,2.32,2.32,0,0,1-.18-1.84,5.72,5.72,0,0,1,2.11-2.51,29.87,29.87,0,0,1,5.41-3c1.86-.83,3.76-1.57,5.67-2.27,3.83-1.4,7.7-2.63,11.58-3.81,7.77-2.35,15.61-4.47,23.45-6.56l23.54-6.14,11.77-3.09a113.2,113.2,0,0,0,11.57-3.62,40,40,0,0,0,5.47-2.55,14.35,14.35,0,0,0,2.43-1.71,4.91,4.91,0,0,0,1.6-2.33,2.93,2.93,0,0,0-.69-2.58,9.12,9.12,0,0,0-2.22-1.92,29.36,29.36,0,0,0-5.4-2.64,97,97,0,0,0-11.62-3.47c-3.93-.95-7.91-1.76-11.89-2.52-8-1.48-16-2.68-24-3.7S333.81,241.43,325.71,240.94Z" transform="translate(-1.29 -53.97)"/><path class="cls-1" d="M394.63,240.94c6.89.33,13.76,1,20.63,1.74s13.71,1.62,20.54,2.68,13.62,2.33,20.33,4a90.93,90.93,0,0,1,9.95,3,34.94,34.94,0,0,1,4.77,2.11,10.38,10.38,0,0,1,4,3.41,3.34,3.34,0,0,1,.32,2.76,5.58,5.58,0,0,1-1.55,2.24,19.08,19.08,0,0,1-4.41,2.87,68.39,68.39,0,0,1-9.71,3.72c-3.31,1-6.66,1.9-10,2.77s-6.69,1.7-10.05,2.51c-13.43,3.24-26.92,6.16-40.43,9-6.75,1.42-13.51,2.84-20.24,4.34-3.37.75-6.73,1.52-10.07,2.36s-6.68,1.72-9.89,2.89a23.17,23.17,0,0,0-2.34,1,6.73,6.73,0,0,0-1,.64c-.31.23-.58.54-.58.74s.22.45.56.64a5.93,5.93,0,0,0,1.11.5,19.58,19.58,0,0,0,2.45.65,102,102,0,0,0,10.22,1.34l20.6,2.09c13.73,1.46,27.45,3.24,41,5.94Q441,308.92,451,311.68c6.65,1.89,13.21,4.05,19.69,6.41-6.51-2.29-13.09-4.38-19.75-6.19s-13.39-3.31-20.16-4.63c-13.55-2.61-27.25-4.36-41-5.76l-20.61-2a103.22,103.22,0,0,1-10.3-1.32,21.24,21.24,0,0,1-2.55-.66,7.27,7.27,0,0,1-1.25-.56,2.35,2.35,0,0,1-.59-.47,1.18,1.18,0,0,1-.34-.85,2,2,0,0,1,.87-1.32,9.51,9.51,0,0,1,1.16-.71,22.39,22.39,0,0,1,2.42-1.05,103.21,103.21,0,0,1,10-2.95c3.35-.86,6.71-1.64,10.08-2.41,6.74-1.53,13.49-3,20.24-4.41,13.5-2.88,27-5.69,40.43-8.89q5-1.2,10.05-2.47c3.34-.86,6.68-1.71,10-2.72a68,68,0,0,0,9.62-3.64,18.29,18.29,0,0,0,4.25-2.74,4.85,4.85,0,0,0,1.38-1.95,2.66,2.66,0,0,0-.25-2.23,9.88,9.88,0,0,0-3.78-3.17,37.76,37.76,0,0,0-4.68-2.1,94.2,94.2,0,0,0-9.87-3c-6.69-1.67-13.47-2.94-20.28-4.06s-13.64-2.09-20.49-2.91S401.52,241.35,394.63,240.94Z" transform="translate(-1.29 -53.97)"/><path class="cls-1" d="M267.69,240.94c4.11.19,8.21.63,12.3,1.13s8.17,1.1,12.23,1.81,8.1,1.51,12.11,2.49a83.29,83.29,0,0,1,11.81,3.7,24.74,24.74,0,0,1,5.45,3,7.59,7.59,0,0,1,2.12,2.35,3.7,3.7,0,0,1,.2,3.18,7,7,0,0,1-1.91,2.54,16.82,16.82,0,0,1-2.52,1.85,41.2,41.2,0,0,1-5.56,2.78c-7.64,3.19-15.7,5.11-23.64,7.27-15.91,4.28-31.83,8.54-47.52,13.53a190.93,190.93,0,0,0-23.06,8.7,47.05,47.05,0,0,0-5.34,3,18.94,18.94,0,0,0-2.39,1.84,6.84,6.84,0,0,0-1.75,2.3,2.65,2.65,0,0,0,.22,2.57,6.77,6.77,0,0,0,2.14,1.93,25.52,25.52,0,0,0,5.56,2.4c31.91,7.88,64.21,14.83,95.92,23.83,7.92,2.27,15.81,4.68,23.58,7.45a139.94,139.94,0,0,1,22.56,10.12,84.31,84.31,0,0,1,19.59,15,55.39,55.39,0,0,1,7.45,9.86,33.32,33.32,0,0,1,4.37,11.49,33,33,0,0,0-4.49-11.42,54.67,54.67,0,0,0-7.52-9.74A86.1,86.1,0,0,0,360,351.12a139,139,0,0,0-22.52-10c-7.76-2.73-15.65-5.11-23.57-7.35C298,329.32,282,325.42,266,321.62L241.91,316l-12-2.84-6-1.43c-2-.47-4-1-6-1.62a26,26,0,0,1-5.74-2.5,7.5,7.5,0,0,1-2.4-2.2,3.58,3.58,0,0,1-.57-1.63,3.62,3.62,0,0,1,.29-1.7,7.56,7.56,0,0,1,2-2.59,20,20,0,0,1,2.5-1.92,46,46,0,0,1,5.45-3,190.63,190.63,0,0,1,23.18-8.67c15.73-5,31.67-9.17,47.59-13.41,7.95-2.14,16-4,23.59-7.18a40.67,40.67,0,0,0,5.49-2.73,16.11,16.11,0,0,0,2.46-1.79,6.44,6.44,0,0,0,1.78-2.35,3.2,3.2,0,0,0-.16-2.78,7.19,7.19,0,0,0-2-2.21,24,24,0,0,0-5.33-3,82.52,82.52,0,0,0-11.72-3.78c-4-1-8-1.85-12.07-2.59s-8.13-1.37-12.21-1.9S271.8,241.16,267.69,240.94Z" transform="translate(-1.29 -53.97)"/><path class="cls-1" d="M100.79,240.94c4.3.2,8.57.66,12.84,1.19s8.52,1.17,12.75,1.92,8.45,1.63,12.61,2.7a67.31,67.31,0,0,1,12.22,4.19,19.78,19.78,0,0,1,2.82,1.62,9.63,9.63,0,0,1,2.41,2.23,4,4,0,0,1,.76,3.24,6.14,6.14,0,0,1-1.78,2.82,22.37,22.37,0,0,1-5.43,3.57c-1.94,1-3.94,1.77-6,2.53-8.1,3-16.52,4.83-24.72,7.36A249.56,249.56,0,0,0,95,282.78a95.26,95.26,0,0,0-11.53,5.63A39.66,39.66,0,0,0,78.24,292a13,13,0,0,0-3.9,4.8,4.85,4.85,0,0,0-.29,2.93,6.07,6.07,0,0,0,1.42,2.62,16.75,16.75,0,0,0,5.11,3.6,61.54,61.54,0,0,0,12.07,4.18c8.34,2,16.76,3.7,25.21,5.25,33.77,6.37,67.82,11.28,101.53,18.11,8.41,1.79,16.81,3.64,25.07,6.11l3.07,1c1,.36,2.06.64,3.05,1.07l6,2.41c2,.74,3.92,1.75,5.88,2.66s3.91,1.81,5.75,2.92A85.41,85.41,0,0,1,288.91,365l2.21,2.35c.72.8,1.36,1.67,2.05,2.5l1,1.25.91,1.34c.58.9,1.26,1.74,1.76,2.7s1.1,1.85,1.56,2.82,1,1.92,1.34,2.94l.58,1.5c.18.51.32,1,.49,1.54a19.76,19.76,0,0,1,.69,3.14,20.1,20.1,0,0,0-.72-3.14c-.17-.51-.32-1-.5-1.53l-.6-1.49c-.36-1-.91-1.95-1.36-2.92s-1.06-1.86-1.58-2.8-1.19-1.78-1.78-2.68l-.92-1.32-1-1.24c-.69-.83-1.34-1.68-2.06-2.48l-2.23-2.32a84.72,84.72,0,0,0-20.76-15c-1.85-1.1-3.81-2-5.75-2.89s-3.85-1.9-5.86-2.64l-6-2.38c-1-.42-2-.7-3-1.05l-3.06-1c-8.22-2.43-16.63-4.25-25-6-33.7-6.73-67.76-11.52-101.58-17.8Q105,314,92.43,311a63.18,63.18,0,0,1-12.23-4.28,17.82,17.82,0,0,1-5.35-3.81,6.88,6.88,0,0,1-1.59-3,5.69,5.69,0,0,1,.34-3.39,13.71,13.71,0,0,1,4.14-5.11,39.7,39.7,0,0,1,5.36-3.67,94.53,94.53,0,0,1,11.64-5.64,250.82,250.82,0,0,1,24.39-8.42c8.23-2.51,16.67-4.31,24.71-7.27a64.13,64.13,0,0,0,5.91-2.49,21.78,21.78,0,0,0,5.31-3.46,5.49,5.49,0,0,0,1.64-2.56,3.48,3.48,0,0,0-.66-2.84,9.1,9.1,0,0,0-2.29-2.12,21.5,21.5,0,0,0-2.75-1.61,68,68,0,0,0-12.09-4.27c-4.15-1.1-8.35-2-12.57-2.8s-8.47-1.46-12.73-2S105.08,241.18,100.79,240.94Z" transform="translate(-1.29 -53.97)"/><path class="cls-1" d="M68.72,240.94c4.12.19,8.22.63,12.31,1.13s8.17,1.1,12.23,1.81,8.1,1.51,12.11,2.49a82.76,82.76,0,0,1,11.8,3.7,24.59,24.59,0,0,1,5.46,3,7.72,7.72,0,0,1,2.12,2.35,3.66,3.66,0,0,1,.19,3.18,7,7,0,0,1-1.9,2.54,16.91,16.91,0,0,1-2.53,1.85,41.68,41.68,0,0,1-5.55,2.78c-7.65,3.19-15.7,5.11-23.64,7.27-15.91,4.28-31.83,8.54-47.52,13.53a190.93,190.93,0,0,0-23.06,8.7,48.07,48.07,0,0,0-5.35,3A19.69,19.69,0,0,0,13,300.08a7.11,7.11,0,0,0-1.75,2.3,2.68,2.68,0,0,0,.23,2.57,6.84,6.84,0,0,0,2.13,1.93,25.6,25.6,0,0,0,5.57,2.4c31.91,7.88,64.2,14.83,95.91,23.83,7.93,2.27,15.81,4.68,23.59,7.45a140.34,140.34,0,0,1,22.56,10.12,84.52,84.52,0,0,1,19.59,15,55.87,55.87,0,0,1,7.45,9.86,33.1,33.1,0,0,1,4.36,11.49,32.83,32.83,0,0,0-4.48-11.42,55.19,55.19,0,0,0-7.53-9.74A85.66,85.66,0,0,0,161,351.12a138.88,138.88,0,0,0-22.51-10c-7.77-2.73-15.65-5.11-23.57-7.35C99.05,329.32,83,325.42,67,321.62L43,316l-12-2.84-6-1.43c-2-.47-4-1-6-1.62a26.09,26.09,0,0,1-5.75-2.5,7.57,7.57,0,0,1-2.39-2.2,3.49,3.49,0,0,1-.29-3.33,7.82,7.82,0,0,1,2-2.59,20,20,0,0,1,2.5-1.92,47.63,47.63,0,0,1,5.45-3,191.4,191.4,0,0,1,23.19-8.67c15.73-5,31.66-9.17,47.59-13.41,8-2.14,16-4,23.59-7.18a40.67,40.67,0,0,0,5.49-2.73,16.11,16.11,0,0,0,2.46-1.79,6.67,6.67,0,0,0,1.78-2.35,3.23,3.23,0,0,0-.16-2.78,7.19,7.19,0,0,0-2-2.21,24.19,24.19,0,0,0-5.33-3,82.24,82.24,0,0,0-11.73-3.78c-4-1-8-1.85-12.07-2.59s-8.12-1.37-12.2-1.9S72.84,241.16,68.72,240.94Z" transform="translate(-1.29 -53.97)"/><path class="cls-4" d="M115,234.84c-.45.45-5.68.65-7.58.65s-7.13-.2-7.58-.65,5.89-35.19,7.58-35.19S115.41,234.39,115,234.84Z" transform="translate(-1.29 -53.97)"/><path class="cls-5" d="M115.06,226c-1.29.49-6.07,2.44-7.11,3v-.66l3.47-2a39.84,39.84,0,0,0,3.73-2.22c.06,0,0-.16-.05-.12a32.41,32.41,0,0,0-3.65,2c-1.18.69-2.34,1.4-3.5,2.12,0-1.66,0-3.33,0-5a38.22,38.22,0,0,0,5.45-2.77c.06,0,0-.14,0-.11a39.19,39.19,0,0,0-5.4,2.66c0-.86,0-1.73,0-2.6,0-4.45-.06-8.92-.17-13.38,1.13-.57,2.3-1.07,3.44-1.65.07,0,0-.17-.06-.14-1.15.45-2.26,1-3.39,1.48-.06-2.3-.15-4.6-.29-6.89a.06.06,0,0,0-.12,0c-.16,4.27-.14,8.54-.09,12.82-1.18-.94-2.43-1.77-3.63-2.68,0,0-.09,0,0,.08,1.25.95,2.42,2,3.67,2.95,0,.24,0,.48,0,.72-1.27-.58-2.56-1.12-3.85-1.67-.1,0-.19.1-.09.15,1.31.63,2.62,1.27,4,1.86l.09,6.35c0,3.7.13,7.4.21,11.09-2.41-1.21-4.83-2.4-7.27-3.55-.09,0-.17.09-.08.14a76.69,76.69,0,0,0,7.36,3.7c.06,3.07.12,6.14.16,9.21,0,.19.3.19.29,0,0-3.91-.05-7.83-.06-11.75a71.84,71.84,0,0,0,7.2-2.93A.11.11,0,0,0,115.06,226Z" transform="translate(-1.29 -53.97)"/><path class="cls-4" d="M40.26,233.76c-.52.53-6.67.76-8.9.76s-8.38-.23-8.91-.76,6.91-41.37,8.91-41.37S40.79,233.23,40.26,233.76Z" transform="translate(-1.29 -53.97)"/><path class="cls-5" d="M40.39,223.35c-1.52.58-7.15,2.87-8.36,3.54v-.77q2-1.2,4.08-2.38a48.16,48.16,0,0,0,4.38-2.61c.07,0,0-.18-.06-.15a37.42,37.42,0,0,0-4.29,2.38q-2.07,1.21-4.11,2.49L32,220a47.59,47.59,0,0,0,6.41-3.25c.07-.05,0-.17-.06-.14A46.18,46.18,0,0,0,32,219.71c0-1,0-2,0-3.05-.06-5.24-.07-10.49-.2-15.73,1.33-.67,2.7-1.27,4-1.94.08-.05,0-.2-.07-.16-1.35.52-2.66,1.15-4,1.73-.08-2.7-.18-5.4-.34-8.1a.07.07,0,0,0-.14,0c-.19,5-.17,10-.11,15.07-1.38-1.11-2.86-2.08-4.26-3.15-.06,0-.11.05-.05.09,1.46,1.12,2.84,2.36,4.31,3.47,0,.29,0,.57,0,.85-1.49-.68-3-1.32-4.53-2-.12,0-.22.12-.1.18,1.54.74,3.08,1.49,4.64,2.19q.06,3.74.11,7.47.09,6.51.25,13-4.24-2.15-8.55-4.17c-.11-.05-.2.1-.1.16A90.81,90.81,0,0,0,31.56,230q.12,5.41.2,10.83a.17.17,0,0,0,.34,0c-.05-4.61-.06-9.21-.07-13.82a83.2,83.2,0,0,0,8.46-3.44C40.63,223.53,40.53,223.3,40.39,223.35Z" transform="translate(-1.29 -53.97)"/><path class="cls-5" d="M102.32,233.21c-.57.57-7.18.82-9.58.82s-9-.25-9.58-.82,7.44-44.49,9.58-44.49S102.89,232.64,102.32,233.21Z" transform="translate(-1.29 -53.97)"/><path class="cls-4" d="M102.45,222c-1.63.62-7.68,3.08-9,3.8,0-.27,0-.55,0-.82l4.39-2.56a53.36,53.36,0,0,0,4.72-2.81c.07,0,0-.2-.07-.16A40.1,40.1,0,0,0,97.88,222c-1.48.87-2.95,1.77-4.42,2.67,0-2.1,0-4.21,0-6.31a50.25,50.25,0,0,0,6.9-3.51c.07,0,0-.18-.07-.14a52.08,52.08,0,0,0-6.83,3.36c0-1.09,0-2.18,0-3.28-.06-5.63-.07-11.28-.22-16.91,1.44-.73,2.92-1.36,4.35-2.09.09,0,0-.21-.07-.17-1.46.56-2.86,1.24-4.29,1.86-.07-2.9-.19-5.81-.36-8.71a.08.08,0,1,0-.15,0c-.2,5.39-.19,10.8-.12,16.2-1.48-1.18-3.07-2.23-4.58-3.38-.06-.05-.12,0-.06.1,1.58,1.2,3.06,2.53,4.65,3.73,0,.31,0,.61,0,.92-1.61-.74-3.25-1.43-4.87-2.12-.13-.06-.25.12-.12.19,1.66.79,3.31,1.6,5,2.35,0,2.68.09,5.36.12,8,.06,4.67.17,9.35.27,14q-4.56-2.31-9.19-4.49c-.12,0-.22.11-.11.18A98.51,98.51,0,0,0,93,229.2c.09,3.88.17,7.76.22,11.65a.18.18,0,0,0,.36,0c-.05-5-.06-9.91-.07-14.86a92.65,92.65,0,0,0,9.1-3.7C102.71,222.22,102.61,222,102.45,222Z" transform="translate(-1.29 -53.97)"/><path class="cls-5" d="M332.78,233.21c-.57.57-7.18.82-9.58.82s-9-.25-9.58-.82,7.44-44.49,9.58-44.49S333.35,232.64,332.78,233.21Z" transform="translate(-1.29 -53.97)"/><path class="cls-4" d="M332.91,222c-1.63.62-7.68,3.08-9,3.8V225l4.39-2.56a53.36,53.36,0,0,0,4.72-2.81c.07,0,0-.2-.07-.16a40.1,40.1,0,0,0-4.62,2.56c-1.48.87-2.95,1.77-4.42,2.67,0-2.1,0-4.21,0-6.31a50.25,50.25,0,0,0,6.9-3.51c.07,0,0-.18-.07-.14a51.47,51.47,0,0,0-6.83,3.36c0-1.09,0-2.18,0-3.28-.06-5.63-.07-11.28-.22-16.91,1.44-.73,2.91-1.36,4.35-2.09.09,0,0-.21-.08-.17-1.45.56-2.85,1.24-4.28,1.86-.08-2.9-.19-5.81-.36-8.71a.08.08,0,1,0-.15,0c-.21,5.39-.19,10.8-.12,16.2-1.49-1.18-3.07-2.23-4.58-3.38-.06-.05-.12,0-.06.1,1.58,1.2,3.06,2.53,4.64,3.73,0,.31,0,.61,0,.92-1.61-.74-3.25-1.43-4.88-2.12-.12-.06-.24.12-.11.19,1.66.79,3.31,1.6,5,2.35,0,2.68.09,5.36.12,8,.06,4.67.16,9.35.26,14q-4.56-2.31-9.18-4.49c-.12,0-.22.11-.11.18a98.51,98.51,0,0,0,9.3,4.67c.08,3.88.16,7.76.21,11.65a.19.19,0,0,0,.37,0c-.05-5-.06-9.91-.08-14.86a90.68,90.68,0,0,0,9.1-3.7C333.17,222.22,333.07,222,332.91,222Z" transform="translate(-1.29 -53.97)"/><path class="cls-5" d="M64.28,233.21c-.57.57-7.18.82-9.58.82s-9-.25-9.58-.82,7.44-44.49,9.58-44.49S64.84,232.64,64.28,233.21Z" transform="translate(-1.29 -53.97)"/><path class="cls-4" d="M64.41,222c-1.63.62-7.68,3.08-9,3.8V225l4.39-2.56a53.36,53.36,0,0,0,4.72-2.81c.07,0,0-.2-.07-.16A39.28,39.28,0,0,0,59.84,222c-1.49.87-3,1.77-4.42,2.67,0-2.1,0-4.21,0-6.31a49.57,49.57,0,0,0,6.89-3.51c.08,0,0-.18-.06-.14a51.47,51.47,0,0,0-6.83,3.36c0-1.09,0-2.18,0-3.28-.06-5.63-.08-11.28-.22-16.91,1.44-.73,2.91-1.36,4.35-2.09.09,0,0-.21-.08-.17-1.45.56-2.85,1.24-4.28,1.86-.08-2.9-.19-5.81-.37-8.71a.08.08,0,1,0-.15,0c-.2,5.39-.18,10.8-.11,16.2-1.49-1.18-3.07-2.23-4.58-3.38-.06-.05-.12,0-.06.1,1.58,1.2,3.06,2.53,4.64,3.73,0,.31,0,.61,0,.92-1.61-.74-3.24-1.43-4.87-2.12-.13-.06-.24.12-.11.19,1.66.79,3.31,1.6,5,2.35l.12,8c.06,4.67.16,9.35.26,14q-4.56-2.31-9.19-4.49c-.11,0-.22.11-.1.18a97.32,97.32,0,0,0,9.3,4.67c.08,3.88.16,7.76.21,11.65a.19.19,0,0,0,.37,0c0-5-.06-9.91-.08-14.86a91.66,91.66,0,0,0,9.1-3.7C64.67,222.22,64.57,222,64.41,222Z" transform="translate(-1.29 -53.97)"/><path class="cls-4" d="M74.14,235.56c.4.4,5,.58,6.7.58s6.3-.18,6.69-.58-5.19-31.09-6.69-31.09S73.75,235.17,74.14,235.56Z" transform="translate(-1.29 -53.97)"/><path class="cls-5" d="M74.05,227.74c1.14.44,5.37,2.16,6.28,2.66v-.58L77.27,228a32.2,32.2,0,0,1-3.3-2s0-.14,0-.11a26.65,26.65,0,0,1,3.22,1.79c1,.61,2.07,1.23,3.1,1.87,0-1.48,0-3,0-4.42a34.52,34.52,0,0,1-4.81-2.45.05.05,0,0,1,0-.1A35.94,35.94,0,0,1,80.36,225c0-.77,0-1.53,0-2.3,0-3.94,0-7.88.15-11.82-1-.51-2-.95-3-1.46-.07,0,0-.15.05-.12,1,.4,2,.87,3,1.3,0-2,.13-4.06.26-6.09,0-.06.1-.07.1,0,.14,3.77.13,7.55.08,11.33,1-.83,2.15-1.56,3.2-2.37,0,0,.08,0,0,.07-1.1.84-2.13,1.77-3.24,2.61,0,.21,0,.43,0,.64,1.13-.51,2.27-1,3.41-1.48.08,0,.16.09.07.13-1.16.56-2.31,1.13-3.48,1.65l-.09,5.61c0,3.27-.11,6.53-.18,9.8,2.12-1.08,4.27-2.13,6.42-3.14.08,0,.15.08.07.12a65.82,65.82,0,0,1-6.5,3.27c-.05,2.71-.11,5.43-.14,8.14,0,.16-.26.16-.26,0,0-3.46,0-6.92,0-10.38A64.14,64.14,0,0,1,74,227.93C73.87,227.88,73.94,227.7,74.05,227.74Z" transform="translate(-1.29 -53.97)"/><path class="cls-4" d="M301.12,235.56c.4.4,5,.58,6.7.58s6.29-.18,6.69-.58-5.2-31.09-6.69-31.09S300.73,235.17,301.12,235.56Z" transform="translate(-1.29 -53.97)"/><path class="cls-5" d="M301,227.74c1.14.44,5.37,2.16,6.28,2.66v-.58L304.25,228a32.2,32.2,0,0,1-3.3-2c-.05,0,0-.14.05-.11a27.43,27.43,0,0,1,3.22,1.79c1,.61,2.07,1.23,3.09,1.87,0-1.48,0-3,0-4.42a34.52,34.52,0,0,1-4.81-2.45.05.05,0,0,1,0-.1,35.23,35.23,0,0,1,4.77,2.36c0-.77,0-1.53,0-2.3,0-3.94,0-7.88.15-11.82-1-.51-2-.95-3-1.46-.06,0,0-.15.06-.12,1,.4,2,.87,3,1.3q.08-3,.25-6.09c0-.06.11-.07.11,0,.14,3.77.13,7.55.08,11.33,1-.83,2.15-1.56,3.2-2.37,0,0,.08,0,0,.07-1.1.84-2.14,1.77-3.24,2.61,0,.21,0,.43,0,.64,1.12-.51,2.27-1,3.4-1.48.09,0,.17.09.08.13-1.16.56-2.31,1.13-3.49,1.65,0,1.87-.05,3.74-.08,5.61,0,3.27-.11,6.53-.18,9.8,2.12-1.08,4.27-2.13,6.42-3.14.08,0,.15.08.07.12a65.82,65.82,0,0,1-6.5,3.27c-.06,2.71-.11,5.43-.15,8.14a.13.13,0,0,1-.25,0c0-3.46,0-6.92.05-10.38a64.14,64.14,0,0,1-6.36-2.59C300.85,227.88,300.92,227.7,301,227.74Z" transform="translate(-1.29 -53.97)"/><path class="cls-4" d="M464.17,235.56c.4.4,5,.58,6.69.58s6.3-.18,6.7-.58-5.2-31.09-6.7-31.09S463.77,235.17,464.17,235.56Z" transform="translate(-1.29 -53.97)"/><path class="cls-5" d="M464.08,227.74c1.14.44,5.36,2.16,6.28,2.66v-.58L467.29,228a34.51,34.51,0,0,1-3.3-2c-.05,0,0-.14.05-.11a26.77,26.77,0,0,1,3.23,1.79c1,.61,2.07,1.23,3.09,1.87,0-1.48,0-3,0-4.42a34.64,34.64,0,0,1-4.82-2.45.06.06,0,0,1,.05-.1,36.44,36.44,0,0,1,4.77,2.36c0-.77,0-1.53,0-2.3,0-3.94.05-7.88.15-11.82-1-.51-2-.95-3-1.46-.07,0,0-.15.05-.12,1,.4,2,.87,3,1.3.06-2,.14-4.06.26-6.09,0-.06.1-.07.1,0,.15,3.77.13,7.55.09,11.33,1-.83,2.14-1.56,3.2-2.37,0,0,.08,0,0,.07-1.11.84-2.14,1.77-3.25,2.61,0,.21,0,.43,0,.64,1.13-.51,2.27-1,3.41-1.48.09,0,.17.09.08.13-1.16.56-2.32,1.13-3.49,1.65,0,1.87-.06,3.74-.08,5.61,0,3.27-.12,6.53-.19,9.8q3.19-1.62,6.43-3.14c.08,0,.15.08.07.12a65.82,65.82,0,0,1-6.5,3.27c-.06,2.71-.12,5.43-.15,8.14a.13.13,0,0,1-.26,0c0-3.46.05-6.92.06-10.38a63.17,63.17,0,0,1-6.36-2.59C463.89,227.88,464,227.7,464.08,227.74Z" transform="translate(-1.29 -53.97)"/><path class="cls-4" d="M40.34,235.56c.39.4,5,.58,6.69.58s6.3-.18,6.69-.58S48.53,204.47,47,204.47,39.94,235.17,40.34,235.56Z" transform="translate(-1.29 -53.97)"/><path class="cls-5" d="M40.24,227.74c1.14.44,5.37,2.16,6.28,2.66,0-.19,0-.38,0-.58L43.46,228a32.2,32.2,0,0,1-3.3-2s0-.14.05-.11a27.56,27.56,0,0,1,3.23,1.79c1,.61,2.06,1.23,3.09,1.87,0-1.48,0-3,0-4.42a34.09,34.09,0,0,1-4.82-2.45s0-.12,0-.1A35.94,35.94,0,0,1,46.55,225c0-.77,0-1.53,0-2.3,0-3.94,0-7.88.15-11.82-1-.51-2-.95-3-1.46-.07,0,0-.15,0-.12,1,.4,2,.87,3,1.3.05-2,.13-4.06.26-6.09,0-.06.1-.07.1,0,.14,3.77.13,7.55.08,11.33,1-.83,2.15-1.56,3.2-2.37a0,0,0,1,1,0,.07c-1.1.84-2.13,1.77-3.24,2.61,0,.21,0,.43,0,.64,1.13-.51,2.27-1,3.41-1.48.09,0,.16.09.07.13-1.15.56-2.31,1.13-3.48,1.65l-.09,5.61c0,3.27-.11,6.53-.18,9.8,2.12-1.08,4.27-2.13,6.42-3.14.08,0,.16.08.07.12a65.82,65.82,0,0,1-6.5,3.27c0,2.71-.11,5.43-.14,8.14,0,.16-.26.16-.26,0,0-3.46,0-6.92.05-10.38a64.14,64.14,0,0,1-6.36-2.59C40.06,227.88,40.13,227.7,40.24,227.74Z" transform="translate(-1.29 -53.97)"/><path class="cls-4" d="M368.08,233.76c-.53.53-6.67.76-8.91.76s-8.38-.23-8.91-.76,6.92-41.37,8.91-41.37S368.6,233.23,368.08,233.76Z" transform="translate(-1.29 -53.97)"/><path class="cls-5" d="M368.2,223.35c-1.52.58-7.14,2.87-8.36,3.54v-.77l4.08-2.38a48.33,48.33,0,0,0,4.39-2.61c.07,0,0-.18-.06-.15a37.55,37.55,0,0,0-4.3,2.38q-2.07,1.21-4.11,2.49c0-2,0-3.92,0-5.88a46.43,46.43,0,0,0,6.41-3.25c.07-.05,0-.17-.05-.14a46.29,46.29,0,0,0-6.36,3.13c0-1,0-2,0-3.05-.05-5.24-.07-10.49-.2-15.73,1.33-.67,2.71-1.27,4-1.94.09-.05,0-.2-.07-.16-1.35.52-2.65,1.15-4,1.73-.07-2.7-.17-5.4-.34-8.1a.07.07,0,0,0-.14,0c-.19,5-.17,10-.11,15.07-1.38-1.11-2.85-2.08-4.26-3.15-.05,0-.1.05-.05.09,1.47,1.12,2.84,2.36,4.32,3.47,0,.29,0,.57,0,.85-1.5-.68-3-1.32-4.53-2-.12,0-.23.12-.11.18,1.55.74,3.08,1.49,4.64,2.19q.06,3.74.11,7.47c.06,4.34.16,8.69.25,13q-4.25-2.15-8.55-4.17c-.1-.05-.2.1-.09.16a89.64,89.64,0,0,0,8.65,4.35c.07,3.61.15,7.22.19,10.83,0,.22.35.22.34,0-.05-4.61-.05-9.21-.07-13.82a82.45,82.45,0,0,0,8.47-3.44A.14.14,0,0,0,368.2,223.35Z" transform="translate(-1.29 -53.97)"/><path class="cls-5" d="M392.09,233.21c-.57.57-7.17.82-9.58.82s-9-.25-9.58-.82,7.44-44.49,9.58-44.49S392.66,232.64,392.09,233.21Z" transform="translate(-1.29 -53.97)"/><path class="cls-4" d="M392.22,222c-1.63.62-7.68,3.08-9,3.8,0-.27,0-.55,0-.82l4.39-2.56a52,52,0,0,0,4.72-2.81c.07,0,0-.2-.07-.16a39.15,39.15,0,0,0-4.61,2.56c-1.49.87-3,1.77-4.43,2.67,0-2.1,0-4.21,0-6.31a50.71,50.71,0,0,0,6.89-3.51c.07,0,0-.18-.06-.14a52.21,52.21,0,0,0-6.84,3.36c0-1.09,0-2.18,0-3.28-.06-5.63-.07-11.28-.21-16.91,1.43-.73,2.91-1.36,4.34-2.09.09,0,0-.21-.07-.17-1.46.56-2.86,1.24-4.29,1.86-.07-2.9-.18-5.81-.36-8.71a.08.08,0,1,0-.15,0c-.2,5.39-.19,10.8-.12,16.2-1.48-1.18-3.07-2.23-4.58-3.38-.06-.05-.12,0-.06.1,1.58,1.2,3.06,2.53,4.65,3.73,0,.31,0,.61,0,.92-1.61-.74-3.25-1.43-4.87-2.12-.13-.06-.25.12-.12.19,1.66.79,3.32,1.6,5,2.35,0,2.68.09,5.36.12,8,.06,4.67.17,9.35.27,14q-4.56-2.31-9.19-4.49c-.12,0-.22.11-.11.18a98.51,98.51,0,0,0,9.3,4.67c.09,3.88.17,7.76.22,11.65,0,.23.37.23.36,0-.05-5-.06-9.91-.07-14.86a92.65,92.65,0,0,0,9.1-3.7C392.49,222.22,392.38,222,392.22,222Z" transform="translate(-1.29 -53.97)"/><path class="cls-4" d="M402,235.56c.4.4,5,.58,6.69.58s6.3-.18,6.7-.58-5.2-31.09-6.7-31.09S401.56,235.17,402,235.56Z" transform="translate(-1.29 -53.97)"/><path class="cls-5" d="M401.87,227.74c1.14.44,5.36,2.16,6.28,2.66v-.58L405.08,228a34.51,34.51,0,0,1-3.3-2s0-.14.05-.11a26.77,26.77,0,0,1,3.23,1.79c1,.61,2.07,1.23,3.09,1.87,0-1.48,0-3,0-4.42a34.64,34.64,0,0,1-4.82-2.45c-.05,0,0-.12,0-.1a35.94,35.94,0,0,1,4.78,2.36c0-.77,0-1.53,0-2.3,0-3.94.05-7.88.15-11.82-1-.51-2-.95-3-1.46-.07,0,0-.15.05-.12,1,.4,2,.87,3,1.3.06-2,.14-4.06.26-6.09,0-.06.1-.07.1,0,.15,3.77.13,7.55.09,11.33,1-.83,2.14-1.56,3.2-2.37,0,0,.08,0,0,.07-1.11.84-2.14,1.77-3.25,2.61,0,.21,0,.43,0,.64,1.13-.51,2.27-1,3.41-1.48.09,0,.17.09.08.13-1.16.56-2.32,1.13-3.49,1.65,0,1.87-.06,3.74-.08,5.61-.05,3.27-.12,6.53-.19,9.8q3.19-1.62,6.43-3.14c.08,0,.15.08.07.12a65.82,65.82,0,0,1-6.5,3.27c-.06,2.71-.12,5.43-.15,8.14a.13.13,0,0,1-.26,0c0-3.46.05-6.92.06-10.38a63.17,63.17,0,0,1-6.36-2.59C401.68,227.88,401.76,227.7,401.87,227.74Z" transform="translate(-1.29 -53.97)"/><path class="cls-4" d="M368.15,235.56c.4.4,5,.58,6.69.58s6.3-.18,6.7-.58-5.2-31.09-6.7-31.09S367.75,235.17,368.15,235.56Z" transform="translate(-1.29 -53.97)"/><path class="cls-5" d="M368.06,227.74c1.14.44,5.36,2.16,6.28,2.66v-.58L371.27,228a33.17,33.17,0,0,1-3.29-2c-.05,0,0-.14,0-.11a26.77,26.77,0,0,1,3.23,1.79c1,.61,2.07,1.23,3.09,1.87,0-1.48,0-3,0-4.42a34.64,34.64,0,0,1-4.82-2.45.06.06,0,0,1,0-.1,36.44,36.44,0,0,1,4.77,2.36c0-.77,0-1.53,0-2.3,0-3.94.05-7.88.15-11.82-1-.51-2-.95-3-1.46-.06,0,0-.15.05-.12,1,.4,2,.87,3,1.3.06-2,.14-4.06.26-6.09a.06.06,0,0,1,.11,0c.14,3.77.12,7.55.08,11.33,1-.83,2.14-1.56,3.2-2.37,0,0,.08,0,0,.07-1.11.84-2.14,1.77-3.25,2.61,0,.21,0,.43,0,.64,1.13-.51,2.27-1,3.41-1.48.09,0,.17.09.08.13-1.16.56-2.32,1.13-3.49,1.65,0,1.87-.06,3.74-.08,5.61,0,3.27-.12,6.53-.19,9.8q3.19-1.62,6.43-3.14c.08,0,.15.08.07.12a65.82,65.82,0,0,1-6.5,3.27c-.06,2.71-.12,5.43-.15,8.14a.13.13,0,0,1-.26,0c0-3.46.05-6.92.06-10.38a63.17,63.17,0,0,1-6.36-2.59C367.87,227.88,368,227.7,368.06,227.74Z" transform="translate(-1.29 -53.97)"/><path class="cls-5" d="M174.53,233.21c-.57.57-7.17.82-9.58.82s-9-.25-9.58-.82,7.44-44.49,9.58-44.49S175.1,232.64,174.53,233.21Z" transform="translate(-1.29 -53.97)"/><path class="cls-4" d="M174.66,222c-1.63.62-7.68,3.08-9,3.8,0-.27,0-.55,0-.82l4.39-2.56a52,52,0,0,0,4.72-2.81c.07,0,0-.2-.07-.16a40.1,40.1,0,0,0-4.62,2.56c-1.48.87-3,1.77-4.42,2.67,0-2.1,0-4.21,0-6.31a50.71,50.71,0,0,0,6.89-3.51c.07,0,0-.18-.06-.14a51.59,51.59,0,0,0-6.84,3.36c0-1.09,0-2.18,0-3.28-.06-5.63-.07-11.28-.22-16.91,1.44-.73,2.92-1.36,4.35-2.09.09,0,0-.21-.07-.17-1.46.56-2.86,1.24-4.29,1.86-.07-2.9-.19-5.81-.36-8.71a.08.08,0,1,0-.15,0c-.2,5.39-.19,10.8-.12,16.2-1.48-1.18-3.07-2.23-4.58-3.38-.06-.05-.12,0-.06.1,1.58,1.2,3.06,2.53,4.65,3.73,0,.31,0,.61,0,.92-1.61-.74-3.25-1.43-4.87-2.12-.13-.06-.25.12-.12.19,1.66.79,3.32,1.6,5,2.35,0,2.68.09,5.36.12,8,.06,4.67.17,9.35.27,14q-4.56-2.31-9.19-4.49c-.12,0-.22.11-.11.18a98.51,98.51,0,0,0,9.3,4.67c.09,3.88.17,7.76.22,11.65,0,.23.37.23.36,0-.05-5-.06-9.91-.07-14.86a92.65,92.65,0,0,0,9.1-3.7C174.92,222.22,174.82,222,174.66,222Z" transform="translate(-1.29 -53.97)"/><path class="cls-5" d="M342.39,235.56c.39.4,5,.58,6.69.58s6.3-.18,6.7-.58-5.2-31.09-6.7-31.09S342,235.17,342.39,235.56Z" transform="translate(-1.29 -53.97)"/><path class="cls-4" d="M342.3,227.74c1.14.44,5.36,2.16,6.28,2.66v-.58L345.51,228a34.51,34.51,0,0,1-3.3-2s0-.14.05-.11a26.77,26.77,0,0,1,3.23,1.79c1,.61,2.06,1.23,3.09,1.87,0-1.48,0-3,0-4.42a34.64,34.64,0,0,1-4.82-2.45s0-.12,0-.1A35.94,35.94,0,0,1,348.6,225c0-.77,0-1.53,0-2.3,0-3.94.05-7.88.15-11.82-1-.51-2-.95-3-1.46-.07,0,0-.15,0-.12,1,.4,2,.87,3,1.3.06-2,.14-4.06.26-6.09,0-.06.1-.07.1,0,.14,3.77.13,7.55.09,11.33,1-.83,2.14-1.56,3.2-2.37,0,0,.08,0,0,.07-1.11.84-2.14,1.77-3.25,2.61,0,.21,0,.43,0,.64,1.13-.51,2.27-1,3.41-1.48.09,0,.17.09.08.13-1.16.56-2.32,1.13-3.49,1.65,0,1.87-.06,3.74-.08,5.61-.05,3.27-.12,6.53-.19,9.8q3.19-1.62,6.42-3.14c.09,0,.16.08.08.12a65.82,65.82,0,0,1-6.5,3.27c-.06,2.71-.12,5.43-.15,8.14a.13.13,0,0,1-.26,0c0-3.46.05-6.92.06-10.38a62.23,62.23,0,0,1-6.36-2.59C342.11,227.88,342.19,227.7,342.3,227.74Z" transform="translate(-1.29 -53.97)"/><path class="cls-5" d="M68.06,240.81s-1-4.42-2.84-5.1-3,1.3-3,1.3-.44-4.22-3.13-5.49-4.69,1.33-4.69,1.33-2.06-5.36-5.74-5.36-5.54,7.84-5.54,7.84-2.17-2.34-4.4-1-2.22,6.5-2.22,6.5Z" transform="translate(-1.29 -53.97)"/><path class="cls-4" d="M382,240.81s-1-4.42-2.84-5.1-3,1.3-3,1.3-.45-4.22-3.13-5.49-4.7,1.33-4.7,1.33-2.06-5.36-5.74-5.36-5.54,7.84-5.54,7.84-2.17-2.34-4.39-1-2.23,6.5-2.23,6.5Z" transform="translate(-1.29 -53.97)"/><path class="cls-5" d="M151.7,240.81H118.43s1.09-4.69,3.3-5a3.24,3.24,0,0,1,3.23,1.84s-.1-6.54,4-7.65,7.58,4.66,7.58,4.66,2.58-3.29,6.1-3.08,4.42,5.65,4.42,5.65S150.28,235.32,151.7,240.81Z" transform="translate(-1.29 -53.97)"/><path class="cls-4" d="M38.49,240.81H21s0-2.6,1.76-3.3a2.34,2.34,0,0,1,2.74.66s.71-4.79,3.92-4.79,4.74,4.13,4.74,4.13a2.45,2.45,0,0,1,2.5-1C38.42,236.73,38.49,240.81,38.49,240.81Z" transform="translate(-1.29 -53.97)"/><path class="cls-4" d="M165.44,240.81H147.93s0-2.6,1.76-3.3a2.34,2.34,0,0,1,2.74.66s.71-4.79,3.91-4.79,4.75,4.13,4.75,4.13a2.45,2.45,0,0,1,2.5-1C165.37,236.73,165.44,240.81,165.44,240.81Z" transform="translate(-1.29 -53.97)"/><path class="cls-4" d="M423.82,240.81H406.31s0-2.6,1.76-3.3a2.36,2.36,0,0,1,2.75.66s.7-4.79,3.91-4.79,4.74,4.13,4.74,4.13a2.45,2.45,0,0,1,2.5-1C423.75,236.73,423.82,240.81,423.82,240.81Z" transform="translate(-1.29 -53.97)"/><path class="cls-5" d="M449.38,240.81H420.5s.07-4.3,2.91-5.44a3.85,3.85,0,0,1,4.52,1.09s1.16-7.9,6.45-7.9,7.82,6.81,7.82,6.81a4,4,0,0,1,4.12-1.67C449.26,234.08,449.38,240.81,449.38,240.81Z" transform="translate(-1.29 -53.97)"/><path class="cls-6" d="M1.29,240.84c159.34-.61,338.08-.61,497.42,0-159.34.62-338.08.61-497.42,0Z" transform="translate(-1.29 -53.97)"/><path class="cls-7" d="M279.45,205.84l-19.7-20.13a9.15,9.15,0,0,0-6.59-2.79l-167.3.2a9.15,9.15,0,0,0-6.58,2.81l-17.83,18.3L59,201.87l17.83-18.3a12.48,12.48,0,0,1,9-3.82l167.31-.21a12.69,12.69,0,0,1,9,3.81l19.71,20.13Z" transform="translate(-1.29 -53.97)"/><rect class="cls-7" x="72.05" y="189.12" width="195.19" height="3.38" transform="translate(-1.52 -53.76) rotate(-0.07)"/><rect class="cls-7" x="88.99" y="181.43" width="3.38" height="22.04" transform="translate(-1.52 -53.86) rotate(-0.07)"/><rect class="cls-7" x="115.58" y="181.4" width="3.38" height="22.04" transform="translate(-1.52 -53.82) rotate(-0.07)"/><rect class="cls-7" x="142.16" y="181.36" width="3.38" height="22.04" transform="translate(-1.53 -53.79) rotate(-0.07)"/><rect class="cls-7" x="168.75" y="181.33" width="3.38" height="22.04" transform="translate(-1.52 -53.76) rotate(-0.07)"/><rect class="cls-7" x="195.33" y="181.3" width="3.38" height="22.04" transform="translate(-1.52 -53.73) rotate(-0.07)"/><rect class="cls-7" x="221.92" y="181.27" width="3.38" height="22.04" transform="translate(-1.52 -53.7) rotate(-0.07)"/><rect class="cls-7" x="248.5" y="181.24" width="3.38" height="22.04" transform="matrix(1, 0, 0, 1, -1.53, -53.66)"/><polygon class="cls-8" points="62.39 310.8 120.11 310.73 177.37 335.63 321.76 329.42 448.7 329.27 448.65 288.38 423.55 263.34 79.24 263.76 62.5 301.94 62.39 310.8"/><polygon class="cls-9" points="62.39 310.8 120.11 310.73 177.37 335.63 321.76 329.42 448.7 329.27 448.65 288.38 423.55 263.34 79.24 263.76 62.5 301.94 62.39 310.8"/><polygon class="cls-10" points="448.64 281.13 448.6 244.68 435.1 231.22 303.78 221.64 285.73 156.76 49.83 157.04 42.17 217.21 42.27 305.83 60.75 305.81 82.17 273.2 147.83 273.12 171.35 321.65 322.88 321.47 367.5 271.24 426.91 271.17 439.68 281.18 448.64 281.13"/><g class="cls-11"><polygon class="cls-12" points="192.12 156.87 192.5 185.58 192.8 214.29 192.8 214.38 192.76 214.48 188.62 226.99 188.65 226.77 188.92 263.09 189.06 299.41 188.05 298.4 240.19 298.23 292.33 298.27 291.31 299.29 291.39 256.79 291.61 214.29 291.63 214.44 284.55 185.62 277.56 156.77 285.23 185.44 292.83 214.14 292.85 214.21 292.85 214.29 293.17 256.79 293.35 299.29 293.36 300.31 292.33 300.31 240.19 300.48 188.05 300.43 187.03 300.43 187.03 299.42 187.09 263.1 187.27 226.77 187.27 226.66 187.31 226.55 191.62 214.09 191.58 214.29 191.81 185.58 192.12 156.87"/><path class="cls-12" d="M326.49,277.17c.15,3.59.25,7.18.35,10.78s.23,7.19.29,10.78l-.62-.62c10.28-.24,20.56-.37,30.85-.46s20.56-.12,30.84-.09,20.56.11,30.84.26,20.57.4,30.85.76q-15.42.59-30.84.84t-30.85.33q-15.42.09-30.84,0c-10.28-.07-20.57-.17-30.85-.39h-.63v-.61c.05-3.59.18-7.19.26-10.78S326.34,280.76,326.49,277.17Z" transform="translate(-1.29 -53.97)"/><path class="cls-12" d="M354.25,322.85a41.71,41.71,0,0,1-.89-6c-.16-2-.25-4-.25-6s.08-4,.24-6a40.51,40.51,0,0,1,.87-6,40.35,40.35,0,0,1,.88,6q.25,3,.26,6t-.24,6A43.3,43.3,0,0,1,354.25,322.85Z" transform="translate(-1.29 -53.97)"/><path class="cls-12" d="M293.59,323.42c-2.63.17-5.26.3-7.9.37s-5.26.16-7.89.19l.53-.54c0,3.29,0,6.58,0,9.86l-.54-.53c2.63,0,5.26.08,7.89.16s5.27.19,7.9.35c-2.63.17-5.26.3-7.89.37s-5.27.16-7.9.19h-.53v-.55q0-4.92,0-9.86v-.54h.53q3.94,0,7.89.17C288.32,323.14,291,323.26,293.59,323.42Z" transform="translate(-1.29 -53.97)"/><path class="cls-12" d="M284.4,328.36A1.39,1.39,0,1,1,283,327,1.38,1.38,0,0,1,284.4,328.36Z" transform="translate(-1.29 -53.97)"/><path class="cls-12" d="M292.57,327v2.77h-3.28a1.39,1.39,0,1,1,0-2.78Z" transform="translate(-1.29 -53.97)"/><path class="cls-12" d="M293.54,282c-2.63.17-5.26.3-7.9.37s-5.26.16-7.89.19l.53-.54c0,3.29,0,6.58,0,9.86l-.54-.53q3.94,0,7.89.17t7.9.35q-3.94.25-7.89.36t-7.9.19h-.53v-.55q0-4.92,0-9.86v-.54h.53q3.94,0,7.89.17C288.27,281.7,290.91,281.82,293.54,282Z" transform="translate(-1.29 -53.97)"/><path class="cls-12" d="M284.35,286.93a1.39,1.39,0,1,1-1.39-1.39A1.4,1.4,0,0,1,284.35,286.93Z" transform="translate(-1.29 -53.97)"/><path class="cls-12" d="M292.52,285.52v2.77h-3.28a1.39,1.39,0,1,1,0-2.78Z" transform="translate(-1.29 -53.97)"/><path class="cls-12" d="M311.63,339.67H304l0-24,18.48,0v13.13Zm-5.35-2.24h4.41l9.55-9.57v-10l-14,0Z" transform="translate(-1.29 -53.97)"/><path class="cls-12" d="M205.18,290.14a4.18,4.18,0,1,1,4.18-4.18A4.18,4.18,0,0,1,205.18,290.14Zm0-7.24a3.06,3.06,0,1,0,3.06,3.06A3.06,3.06,0,0,0,205.17,282.9Z" transform="translate(-1.29 -53.97)"/><rect class="cls-12" x="204.61" y="284.3" width="1.13" height="3.33" transform="translate(-1.63 -53.73) rotate(-0.07)"/></g><path class="cls-12" d="M347.59,278.7v9.43a1.13,1.13,0,0,1-1.12,1.13h0a1.14,1.14,0,0,1-1.13-1.13v-9.59Z" transform="translate(-1.29 -53.97)"/><path class="cls-12" d="M354.66,279.22l0,8.9a1.14,1.14,0,0,1-1.13,1.13h0a1.14,1.14,0,0,1-1.13-1.13v-9.06Z" transform="translate(-1.29 -53.97)"/><path class="cls-12" d="M361.74,279.73v8.38a1.14,1.14,0,0,1-1.13,1.13h0a1.14,1.14,0,0,1-1.13-1.13v-8.54Z" transform="translate(-1.29 -53.97)"/><path class="cls-12" d="M368.8,280.25v7.85a1.14,1.14,0,0,1-1.13,1.13h0a1.13,1.13,0,0,1-1.13-1.12v-8Z" transform="translate(-1.29 -53.97)"/><path class="cls-12" d="M375.87,280.76v7.33a1.12,1.12,0,0,1-1.13,1.13h0a1.12,1.12,0,0,1-1.12-1.12v-7.5Z" transform="translate(-1.29 -53.97)"/><path class="cls-12" d="M345.38,308l-11.56,0a1.13,1.13,0,0,1-1.12-1.13h0a1.13,1.13,0,0,1,1.12-1.13h11.55a1.13,1.13,0,0,1,1.13,1.12h0A1.12,1.12,0,0,1,345.38,308Z" transform="translate(-1.29 -53.97)"/><path class="cls-12" d="M345.38,314.13H333.83A1.13,1.13,0,0,1,332.7,313h0a1.13,1.13,0,0,1,1.13-1.13l11.55,0a1.14,1.14,0,0,1,1.13,1.13h0A1.14,1.14,0,0,1,345.38,314.13Z" transform="translate(-1.29 -53.97)"/><path class="cls-12" d="M345.39,320.24l-11.55,0a1.14,1.14,0,0,1-1.13-1.13h0a1.14,1.14,0,0,1,1.13-1.13h11.55a1.14,1.14,0,0,1,1.13,1.13h0A1.13,1.13,0,0,1,345.39,320.24Z" transform="translate(-1.29 -53.97)"/><polygon class="cls-13" points="253.01 143.45 81.29 143.66 55.25 149.09 48.83 157.04 287.23 156.76 282.23 149.16 253.01 143.45"/><path class="cls-12" d="M176.81,302l-133.32.16v-3.49l133.32-.16a1.75,1.75,0,0,1,1.75,1.74h0A1.75,1.75,0,0,1,176.81,302Z" transform="translate(-1.29 -53.97)"/><polygon class="cls-13" points="213.45 250.15 200.35 250.16 199.22 248.81 199.22 244.92 214.57 244.9 214.57 248.88 213.45 250.15"/><rect class="cls-14" x="56.99" y="307.85" width="16.72" height="10.73" transform="translate(-1.67 -53.89) rotate(-0.07)"/><polygon class="cls-14" points="453.39 262.84 445.09 262.85 442.22 261.72 442.21 251.74 445.08 250.61 453.38 250.6 453.39 262.84"/><path class="cls-15" d="M50.13,219.47H60.9a6.67,6.67,0,0,1,6.67,6.66l0,37.6A6.65,6.65,0,0,1,61,270.39l-17.5,0Z" transform="translate(-1.29 -53.97)"/><path class="cls-15" d="M86.68,219.43l16,0,.06,50.93-16,0a6.66,6.66,0,0,1-6.67-6.65l0-37.61A6.67,6.67,0,0,1,86.68,219.43Z" transform="translate(-1.29 -53.97)"/><path class="cls-15" d="M115.12,219.4l61.17-.08A6.67,6.67,0,0,1,183,226l0,37.6a6.67,6.67,0,0,1-6.66,6.67l-61.17.08Z" transform="translate(-1.29 -53.97)"/><path class="cls-15" d="M275.64,270.13l-66,.08a6.66,6.66,0,0,1-6.67-6.65L203,226a6.66,6.66,0,0,1,6.65-6.67l55.85-.07a6.68,6.68,0,0,1,6.44,4.93l10.17,37.59A6.66,6.66,0,0,1,275.64,270.13Z" transform="translate(-1.29 -53.97)"/><path class="cls-16" d="M67.57,226.12V230L47,243.45l1.87-14.23,14.3-9.36A6.67,6.67,0,0,1,67.57,226.12Z" transform="translate(-1.29 -53.97)"/><polygon class="cls-16" points="87.25 216.39 101.43 207.12 101.44 216.38 87.25 216.39"/><path class="cls-16" d="M181.88,222.34,115.18,266l0-13,51.42-33.62h9.71A6.67,6.67,0,0,1,181.88,222.34Z" transform="translate(-1.29 -53.97)"/><polygon class="cls-16" points="275.5 188.3 232.79 216.22 212.86 216.24 272.51 177.24 275.5 188.3"/><polygon class="cls-16" points="46.49 216.44 66.31 203.48 66.32 207.87 53.22 216.43 46.49 216.44"/><polygon class="cls-16" points="101.4 180.55 101.4 184.94 78.76 199.74 78.76 195.35 101.4 180.55"/><polygon class="cls-16" points="131.26 165.41 113.84 176.8 113.84 172.41 124.53 165.42 131.26 165.41"/><polygon class="cls-16" points="154.26 216.31 181.7 198.36 181.71 202.75 160.99 216.3 154.26 216.31"/><polygon class="cls-16" points="239.03 165.28 201.68 189.7 201.67 185.31 232.3 165.29 239.03 165.28"/><polygon class="cls-16" points="42.57 213.38 66.31 197.86 66.31 199.38 42.34 215.04 42.57 213.38"/><polygon class="cls-16" points="101.39 174.93 101.39 176.45 78.75 191.25 78.75 189.73 101.39 174.93"/><polygon class="cls-16" points="118.25 165.43 113.83 168.31 113.83 166.78 115.91 165.43 118.25 165.43"/><path class="cls-16" d="M183,226v1L116.6,270.32h-1.42v-.6l67.76-44.29C183,225.62,183,225.8,183,226Z" transform="translate(-1.29 -53.97)"/><path class="cls-16" d="M272.15,225.12l-66.7,43.61a8.88,8.88,0,0,1-.92-.92l67.27-44a2.12,2.12,0,0,1,.09.31Z" transform="translate(-1.29 -53.97)"/><path class="cls-7" d="M168.4,385l-.75-.18v7.39l.75-.19c.09-1.16.12-2.34.12-3.52S168.49,386.13,168.4,385Zm-.9-1.8.73-.31a52.69,52.69,0,0,0-1.23-6.92l-.79,0Zm-1.26,17.89.79,0a49.93,49.93,0,0,0,1.2-6.93l-.72-.3Zm.21-27.17a49.78,49.78,0,0,0-2.4-6.59l-.79.09,2.53,6.93Zm-3.14,35.69.78.1a51.51,51.51,0,0,0,2.4-6.61l-.67-.43Zm-4.44-50.06,3.7,6.39.57-.54a49.08,49.08,0,0,0-3.53-6.08Zm.07,57.93.74.23a50.42,50.42,0,0,0,3.52-6.09l-.58-.54Zm-5.77-64.9,4.76,5.64.47-.62a49.5,49.5,0,0,0-4.52-5.38Zm.09,71.9.7.35a51.7,51.7,0,0,0,4.51-5.39l-.46-.61Zm-6.89-77.8,5.65,4.74.36-.7a50.79,50.79,0,0,0-5.4-4.51Zm.1,83.71.62.46a51.57,51.57,0,0,0,5.37-4.52l-.35-.7ZM138.62,342l6.4,3.68.24-.75a50.48,50.48,0,0,0-6.1-3.51Zm.12,92.95.54.57a51.53,51.53,0,0,0,6.07-3.52l-.22-.74Zm-8.53-96.15,6.94,2.51.1-.79a51.47,51.47,0,0,0-6.61-2.39Zm.12,99.38.43.65a49.44,49.44,0,0,0,6.6-2.41l-.1-.77Zm-8.66-101.79-.3.71,7.26,1.27,0-.78A49.93,49.93,0,0,0,121.67,336.43Zm.13,104.21a49.58,49.58,0,0,0,6.92-1.23l0-.77-7.26,1.29Zm-5.75-104.51c-1.18,0-2.35,0-3.51.13l-.18.75h7.39l-.18-.75C118.41,336.16,117.23,336.13,116.05,336.13Zm-3.4,104.7c1.16.09,2.35.12,3.53.12s2.36,0,3.52-.13l.17-.74h-7.39Zm-9.14-103.17,0,.78,7.27-1.29-.31-.71A51.07,51.07,0,0,0,103.51,337.66Zm.12,101.78a49.94,49.94,0,0,0,6.93,1.21l.3-.71-7.27-1.27Zm-8.76-98.82.09.78,6.93-2.53-.43-.66A51.28,51.28,0,0,0,94.87,340.62ZM95,436.5a48.71,48.71,0,0,0,6.61,2.41l.42-.66-6.94-2.51Zm-8.11-91.45.22.74,6.39-3.7-.53-.57A50.93,50.93,0,0,0,86.87,345.05ZM87,432.1a52.52,52.52,0,0,0,6.1,3.52l.53-.58-6.41-3.67Zm-7.2-81.31.35.68,5.64-4.74-.62-.46A48.11,48.11,0,0,0,79.77,350.79Zm.09,75.59a49.72,49.72,0,0,0,5.4,4.52l.61-.46-5.66-4.75Zm-6.1-68.7.46.61L79,352.64l-.69-.35A50.49,50.49,0,0,0,73.76,357.68Zm.08,61.83a49.59,49.59,0,0,0,4.53,5.38l.68-.35L74.3,418.9ZM69,365.5l.58.52,3.68-6.4-.74-.22A49.79,49.79,0,0,0,69,365.5Zm.07,46.2a51.66,51.66,0,0,0,3.52,6.08l.74-.22-3.7-6.39ZM65.75,374l.66.42,2.51-6.94-.78-.09A51.47,51.47,0,0,0,65.75,374Zm0,29.17a49.48,49.48,0,0,0,2.42,6.6l.76-.1-2.53-6.93ZM66,376l-.76,0A51.49,51.49,0,0,0,64,383l.71.3Zm-1.26,17.9-.7.3a49.46,49.46,0,0,0,1.23,6.93l.76,0Zm-.15-9-.74.17c-.09,1.16-.12,2.33-.12,3.52s0,2.36.13,3.53l.74.17Z" transform="translate(-1.29 -53.97)"/><path class="cls-7" d="M167.66,392.18l.75-.19c0,.71-.1,1.41-.18,2.11l-.72-.3-1.27,7.26.79,0c-.16.68-.35,1.36-.54,2l-.67-.43-2.51,6.94.78.1c-.28.64-.58,1.28-.89,1.91l-.58-.54-3.68,6.4.74.23c-.38.58-.78,1.17-1.21,1.73l-.46-.61-4.75,5.65.7.35c-.48.51-1,1-1.5,1.5l-.35-.7-5.64,4.76.62.46c-.57.42-1.15.83-1.74,1.22l-.22-.74L138.74,435l.54.57q-.94.48-1.92.9l-.1-.77-6.93,2.53.43.65c-.68.2-1.35.39-2,.54l0-.77-7.26,1.29.31.71q-1,.12-2.1.18l.17-.74h-7.39l.17.74c-.69,0-1.39-.1-2.09-.18l.3-.71-7.27-1.27,0,.77c-.68-.15-1.36-.33-2-.53l.42-.66-6.94-2.51-.09.76c-.64-.28-1.28-.57-1.91-.88l.53-.58-6.41-3.67-.22.73c-.59-.38-1.15-.79-1.71-1.2l.61-.46-5.66-4.75-.35.69c-.51-.49-1-1-1.49-1.49l.68-.35L74.3,418.9l-.46.61c-.42-.57-.83-1.14-1.22-1.73l.74-.22-3.7-6.39-.56.53c-.32-.63-.61-1.26-.89-1.91l.76-.1-2.53-6.93-.65.43c-.19-.68-.39-1.35-.54-2l.76,0-1.29-7.26-.7.3c-.08-.69-.14-1.39-.18-2.09l.74.17v-7.39l-.74.17c0-.69.1-1.39.17-2.09l.71.3L66,376l-.76,0c.15-.68.33-1.36.53-2l.66.42,2.51-6.94-.78-.09c.28-.64.59-1.28.89-1.91l.58.52,3.68-6.4-.74-.22c.39-.59.8-1.16,1.21-1.72l.46.61L79,352.64l-.69-.35c.48-.51,1-1,1.5-1.5l.35.68,5.64-4.74-.62-.46c.57-.43,1.14-.83,1.73-1.22l.22.74,6.39-3.7-.53-.57c.63-.32,1.27-.61,1.92-.9l.09.78,6.93-2.53-.43-.66c.68-.21,1.36-.39,2.05-.55l0,.78,7.27-1.29-.31-.71c.7-.08,1.4-.15,2.11-.18l-.18.75h7.39l-.18-.75c.7,0,1.4.1,2.1.18l-.3.71,7.26,1.27,0-.78q1,.24,2,.54l-.43.67,6.94,2.51.1-.79c.64.28,1.28.59,1.91.9l-.54.58,6.4,3.68.24-.75c.59.39,1.16.79,1.72,1.21l-.61.47,5.65,4.74.36-.7q.76.74,1.5,1.5l-.71.36,4.76,5.64.47-.62c.42.57.83,1.14,1.21,1.72l-.74.23,3.7,6.39.57-.54c.32.63.62,1.27.91,1.93l-.79.09,2.53,6.93.66-.43c.21.68.39,1.36.55,2.05l-.79,0,1.29,7.27.73-.31c.07.7.14,1.4.17,2.11l-.75-.18Z" transform="translate(-1.29 -53.97)"/><polygon class="cls-7" points="118.45 283.04 111.07 283.05 111.25 282.29 111.78 279.95 117.73 279.94 118.27 282.28 118.45 283.04"/><polygon class="cls-7" points="109.45 283.18 102.17 284.48 102.22 283.7 102.34 281.31 108.2 280.27 109.14 282.48 109.45 283.18"/><polygon class="cls-7" points="100.6 284.91 93.67 287.44 93.57 286.66 93.28 284.28 98.87 282.24 100.17 284.24 100.6 284.91"/><polygon class="cls-7" points="92.19 288.13 85.8 291.83 85.57 291.08 84.87 288.79 90.03 285.81 91.66 287.55 92.19 288.13"/><polygon class="cls-7" points="84.47 292.76 78.83 297.51 78.48 296.82 77.38 294.69 81.94 290.85 83.85 292.3 84.47 292.76"/><polygon class="cls-7" points="77.67 298.67 72.93 304.33 72.47 303.71 71.02 301.8 74.84 297.23 76.98 298.32 77.67 298.67"/><polygon class="cls-7" points="72 305.66 68.31 312.06 67.74 311.53 65.99 309.9 68.96 304.74 71.26 305.44 72 305.66"/><polygon class="cls-7" points="67.63 313.54 65.12 320.48 64.46 320.06 62.45 318.75 64.48 313.16 66.85 313.45 67.63 313.54"/><polygon class="cls-7" points="64.69 322.05 63.41 329.33 62.7 329.02 60.5 328.09 61.53 322.22 63.92 322.1 64.69 322.05"/><polygon class="cls-7" points="63.28 330.95 63.29 338.33 62.55 338.17 60.19 337.62 60.19 331.67 62.54 331.12 63.28 330.95"/><polygon class="cls-7" points="64.72 347.22 63.95 347.19 61.56 347.06 60.51 341.2 62.73 340.25 63.43 339.96 64.72 347.22"/><polygon class="cls-7" points="67.68 355.73 66.92 355.83 64.53 356.13 62.48 350.53 64.5 349.22 65.15 348.79 67.68 355.73"/><polygon class="cls-7" points="72.07 363.59 71.33 363.82 69.03 364.53 66.05 359.38 67.81 357.73 68.37 357.2 72.07 363.59"/><polygon class="cls-7" points="77.75 370.58 77.08 370.93 74.93 372.02 71.09 367.47 72.55 365.54 73.01 364.93 77.75 370.58"/><polygon class="cls-7" points="84.57 376.47 83.97 376.93 82.04 378.38 77.48 374.56 78.57 372.41 78.92 371.73 84.57 376.47"/><polygon class="cls-7" points="92.3 381.08 91.78 381.65 90.14 383.41 84.98 380.43 85.68 378.13 85.9 377.4 92.3 381.08"/><polygon class="cls-7" points="100.72 384.29 100.3 384.94 99 386.95 93.4 384.93 93.69 382.54 93.78 381.77 100.72 384.29"/><polygon class="cls-7" points="109.57 385.98 109.27 386.69 108.34 388.91 102.47 387.88 102.34 385.48 102.3 384.7 109.57 385.98"/><polygon class="cls-7" points="118.58 386.11 118.41 386.86 117.86 389.21 111.92 389.22 111.36 386.87 111.19 386.12 118.58 386.11"/><polygon class="cls-7" points="127.46 384.67 127.43 385.45 127.31 387.85 121.44 388.89 120.51 386.67 120.2 385.96 127.46 384.67"/><polygon class="cls-7" points="136.37 384.88 130.78 386.91 129.47 384.91 129.04 384.25 135.97 381.72 136.07 382.5 136.37 384.88"/><polygon class="cls-7" points="144.78 380.36 139.62 383.35 137.99 381.6 137.44 381.02 143.84 377.33 144.06 378.08 144.78 380.36"/><polygon class="cls-7" points="152.27 374.47 147.71 378.3 145.79 376.86 145.18 376.4 150.82 371.64 151.17 372.34 152.27 374.47"/><polygon class="cls-7" points="158.62 367.36 154.81 371.93 152.67 370.84 151.97 370.49 156.71 364.83 157.18 365.45 158.62 367.36"/><polygon class="cls-7" points="163.66 359.26 160.68 364.42 158.39 363.71 157.65 363.49 161.33 357.09 161.91 357.63 163.66 359.26"/><polygon class="cls-7" points="167.19 350.4 165.17 356 162.79 355.71 162.02 355.61 164.53 348.67 165.2 349.1 167.19 350.4"/><polygon class="cls-7" points="169.15 341.07 168.12 346.94 165.74 347.06 164.95 347.1 166.22 339.83 166.94 340.14 169.15 341.07"/><polygon class="cls-7" points="169.45 331.54 169.46 337.49 167.12 338.03 166.37 338.21 166.36 330.82 167.11 331 169.45 331.54"/><polygon class="cls-7" points="169.13 327.96 166.94 328.9 166.21 329.2 164.92 321.93 165.71 321.97 168.09 322.1 169.13 327.96"/><polygon class="cls-7" points="167.15 318.63 165.16 319.93 164.5 320.35 161.97 313.42 162.75 313.33 165.12 313.04 167.15 318.63"/><polygon class="cls-7" points="163.59 309.78 161.85 311.41 161.28 311.95 157.58 305.56 158.32 305.33 160.6 304.63 163.59 309.78"/><polygon class="cls-7" points="158.54 301.69 157.11 303.61 156.64 304.23 151.88 298.58 152.59 298.22 154.72 297.14 158.54 301.69"/><polygon class="cls-7" points="152.17 294.6 151.09 296.72 150.73 297.42 145.07 292.69 145.69 292.22 147.6 290.77 152.17 294.6"/><polygon class="cls-7" points="144.66 288.71 143.97 291 143.73 291.76 137.33 288.07 137.87 287.5 139.5 285.75 144.66 288.71"/><polygon class="cls-7" points="136.25 284.23 135.96 286.6 135.86 287.39 128.92 284.87 129.34 284.21 130.65 282.2 136.25 284.23"/><polygon class="cls-7" points="127.34 284.45 120.08 283.17 120.38 282.46 121.31 280.25 127.18 281.28 127.31 283.67 127.34 284.45"/><path class="cls-15" d="M141.34,388.51a25.23,25.23,0,1,1-25.26-25.19A25.24,25.24,0,0,1,141.34,388.51Z" transform="translate(-1.29 -53.97)"/><circle class="cls-17" cx="116.11" cy="388.54" r="21.82" transform="translate(-287.14 388.18) rotate(-80.96)"/><path class="cls-7" d="M125.77,388.53a9.66,9.66,0,1,1-9.67-9.65A9.65,9.65,0,0,1,125.77,388.53Z" transform="translate(-1.29 -53.97)"/><path class="cls-7" d="M116.13,401.13a12.59,12.59,0,1,1,12.57-12.6A12.6,12.6,0,0,1,116.13,401.13Zm0-24.05a11.46,11.46,0,1,0,11.47,11.45A11.47,11.47,0,0,0,116.1,377.08Z" transform="translate(-1.29 -53.97)"/><path class="cls-7" d="M118.14,371.38a2,2,0,1,1-2-2.05A2,2,0,0,1,118.14,371.38Z" transform="translate(-1.29 -53.97)"/><path class="cls-7" d="M109.29,372.66a2.05,2.05,0,1,1-2.8-.74A2.05,2.05,0,0,1,109.29,372.66Z" transform="translate(-1.29 -53.97)"/><path class="cls-7" d="M102.26,378.2a2,2,0,1,1-2.8.76A2.06,2.06,0,0,1,102.26,378.2Z" transform="translate(-1.29 -53.97)"/><path class="cls-7" d="M99,386.51a2.05,2.05,0,1,1-2,2.06A2.05,2.05,0,0,1,99,386.51Z" transform="translate(-1.29 -53.97)"/><path class="cls-7" d="M100.23,395.37a2,2,0,1,1-.74,2.8A2.05,2.05,0,0,1,100.23,395.37Z" transform="translate(-1.29 -53.97)"/><path class="cls-7" d="M105.78,402.39a2,2,0,1,1,.75,2.8A2,2,0,0,1,105.78,402.39Z" transform="translate(-1.29 -53.97)"/><path class="cls-7" d="M114.09,405.71a2,2,0,1,1,2,2A2,2,0,0,1,114.09,405.71Z" transform="translate(-1.29 -53.97)"/><path class="cls-7" d="M122.94,404.42a2,2,0,1,1,2.8.75A2,2,0,0,1,122.94,404.42Z" transform="translate(-1.29 -53.97)"/><path class="cls-7" d="M130,398.88a2,2,0,1,1,2.8-.75A2.05,2.05,0,0,1,130,398.88Z" transform="translate(-1.29 -53.97)"/><path class="cls-7" d="M133.28,390.57a2.05,2.05,0,1,1,2-2.05A2,2,0,0,1,133.28,390.57Z" transform="translate(-1.29 -53.97)"/><path class="cls-7" d="M132,381.72a2,2,0,1,1,.75-2.8A2.06,2.06,0,0,1,132,381.72Z" transform="translate(-1.29 -53.97)"/><path class="cls-7" d="M126.45,374.69a2,2,0,1,1-.75-2.8A2,2,0,0,1,126.45,374.69Z" transform="translate(-1.29 -53.97)"/><path class="cls-7" d="M445.53,384.63l-.75-.18v7.39l.76-.18c.09-1.16.12-2.34.12-3.53S445.62,385.79,445.53,384.63Zm-.9-1.8.73-.3a51.24,51.24,0,0,0-1.24-6.93l-.78,0Zm-1.26,17.9.78,0a49.54,49.54,0,0,0,1.21-6.92l-.72-.31Zm.21-27.17a51.42,51.42,0,0,0-2.41-6.6l-.78.09,2.53,6.93Zm-3.14,35.68.77.1a49.58,49.58,0,0,0,2.41-6.61l-.67-.43ZM436,359.19l3.7,6.39.57-.54a48.87,48.87,0,0,0-3.53-6.08Zm.07,57.93.74.22a53.1,53.1,0,0,0,3.52-6.08l-.58-.54Zm-5.77-64.91,4.76,5.65.47-.62a53.06,53.06,0,0,0-4.52-5.39Zm.09,71.91.7.35a54.08,54.08,0,0,0,4.51-5.39l-.47-.62Zm-6.9-77.8,5.66,4.73.36-.7a50.7,50.7,0,0,0-5.4-4.5Zm.1,83.71.62.46a54.06,54.06,0,0,0,5.38-4.52l-.35-.7Zm-7.84-88.33,6.4,3.69.24-.76a51.78,51.78,0,0,0-6.1-3.5Zm.11,92.95.55.58a53,53,0,0,0,6.07-3.52l-.22-.75Zm-8.52-96.15,6.94,2.52.1-.79a49.63,49.63,0,0,0-6.62-2.39Zm.12,99.38.43.66a50.87,50.87,0,0,0,6.6-2.41l-.1-.78ZM398.8,336.09l-.3.71,7.26,1.28,0-.78A51.05,51.05,0,0,0,398.8,336.09Zm.12,104.21a50.94,50.94,0,0,0,6.93-1.22l0-.78-7.26,1.29Zm-5.74-104.51c-1.18,0-2.35,0-3.51.13l-.18.76h7.38l-.18-.76C395.53,335.82,394.36,335.79,393.18,335.79Zm-3.4,104.7c1.16.09,2.34.13,3.53.12s2.36,0,3.52-.12l.17-.75h-7.39Zm-9.14-103.16-.05.78,7.28-1.3-.31-.71A51.08,51.08,0,0,0,380.64,337.33Zm.12,101.78a50.93,50.93,0,0,0,6.93,1.21l.3-.71-7.28-1.28ZM372,340.29l.09.78,6.94-2.53-.43-.67A52,52,0,0,0,372,340.29Zm.12,95.88a50,50,0,0,0,6.61,2.4l.42-.65-6.94-2.52ZM364,344.71l.23.75,6.39-3.7-.53-.58A51.06,51.06,0,0,0,364,344.71Zm.11,87.06a51.72,51.72,0,0,0,6.09,3.51l.53-.57-6.4-3.68Zm-7.21-81.32.35.69,5.65-4.75-.62-.46A51.48,51.48,0,0,0,356.89,350.45ZM357,426a50.58,50.58,0,0,0,5.39,4.52l.61-.46-5.66-4.74Zm-6.1-68.7.46.62,4.74-5.66-.69-.35A51.5,51.5,0,0,0,350.89,357.34Zm.07,61.83a50.76,50.76,0,0,0,4.54,5.39l.67-.35-4.74-5.65Zm-4.8-54,.57.53,3.69-6.4-.74-.23A49.79,49.79,0,0,0,346.16,365.16Zm.07,46.2a50.42,50.42,0,0,0,3.52,6.09l.74-.23-3.7-6.39Zm-3.35-37.67.65.41,2.52-6.93-.78-.09A50.93,50.93,0,0,0,342.88,373.69Zm0,29.16a51,51,0,0,0,2.41,6.61l.77-.1-2.53-6.94Zm.19-27.17-.77.05a52.67,52.67,0,0,0-1.22,6.92l.71.31Zm-1.26,17.91-.7.29a50.94,50.94,0,0,0,1.22,6.93l.77,0Zm-.15-9-.74.17c-.09,1.16-.12,2.33-.12,3.51s.05,2.37.13,3.54l.74.17Z" transform="translate(-1.29 -53.97)"/><path class="cls-7" d="M444.78,391.84l.76-.18c-.05.71-.1,1.41-.18,2.11l-.72-.31-1.27,7.27.78,0c-.15.69-.34,1.36-.53,2l-.67-.43-2.51,6.94.77.1c-.28.65-.57,1.29-.88,1.92l-.58-.54-3.68,6.4.74.22c-.38.59-.79,1.18-1.21,1.74l-.47-.62-4.74,5.66.7.35c-.49.5-1,1-1.5,1.5l-.35-.7L423.59,430l.62.46c-.56.41-1.14.82-1.73,1.22l-.22-.75-6.4,3.69.55.58c-.63.31-1.28.62-1.92.9l-.1-.78-6.93,2.53.43.66q-1,.3-2,.54l0-.78-7.26,1.29.3.71c-.69.08-1.39.14-2.09.19l.17-.75h-7.39l.17.74c-.7,0-1.39-.1-2.09-.17l.3-.71-7.28-1.28.05.78c-.69-.16-1.36-.34-2-.54l.42-.65-6.94-2.52-.09.77c-.64-.28-1.29-.57-1.92-.89l.53-.57-6.4-3.68-.22.74c-.59-.39-1.15-.79-1.72-1.21l.61-.46-5.66-4.74L357,426c-.51-.48-1-1-1.49-1.48l.67-.35-4.74-5.65-.47.61c-.41-.56-.82-1.14-1.21-1.72l.74-.23-3.7-6.39-.56.53c-.32-.63-.61-1.26-.9-1.9l.77-.1-2.53-6.94-.65.43c-.2-.67-.39-1.35-.55-2l.77,0-1.29-7.26-.7.29c-.08-.69-.14-1.38-.18-2.08l.74.17v-7.39l-.74.17c0-.7.1-1.4.16-2.1l.71.31,1.28-7.28-.77.05q.24-1,.54-2l.65.41,2.52-6.93-.78-.09c.28-.65.59-1.29.89-1.92l.57.53,3.69-6.4-.74-.23c.39-.58.79-1.16,1.21-1.72l.46.62,4.74-5.66-.69-.35c.48-.5,1-1,1.49-1.5l.35.69,5.65-4.75-.62-.46c.56-.43,1.14-.82,1.72-1.22l.23.75,6.39-3.7-.53-.58c.63-.31,1.27-.61,1.91-.89l.09.78,6.94-2.53-.43-.67c.67-.2,1.36-.38,2.05-.54l-.05.78,7.28-1.3-.31-.71c.7-.08,1.4-.14,2.11-.18l-.18.76h7.38l-.18-.76c.71,0,1.41.1,2.11.18l-.3.71,7.26,1.28,0-.78c.69.16,1.37.33,2,.54l-.42.66,6.94,2.52.1-.79c.64.28,1.28.58,1.91.9l-.54.57,6.4,3.69.24-.76c.58.39,1.16.8,1.72,1.22l-.62.47,5.66,4.73.36-.7c.51.5,1,1,1.5,1.5l-.71.36,4.76,5.65.47-.62c.42.56.83,1.13,1.21,1.72l-.74.23,3.7,6.39.57-.54q.48.94.9,1.92l-.78.09,2.53,6.93.66-.42c.2.67.38,1.36.54,2l-.78,0,1.29,7.27.73-.3c.07.7.14,1.39.17,2.1l-.75-.18Z" transform="translate(-1.29 -53.97)"/><polygon class="cls-7" points="395.58 282.7 388.19 282.71 388.38 281.96 388.91 279.61 394.86 279.61 395.4 281.95 395.58 282.7"/><polygon class="cls-7" points="386.57 282.85 379.3 284.14 379.35 283.36 379.47 280.98 385.33 279.93 386.27 282.14 386.57 282.85"/><polygon class="cls-7" points="377.73 284.57 370.79 287.1 370.7 286.32 370.41 283.95 376 281.9 377.3 283.91 377.73 284.57"/><polygon class="cls-7" points="369.32 287.79 362.93 291.49 362.7 290.75 362 288.45 367.15 285.47 368.79 287.22 369.32 287.79"/><polygon class="cls-7" points="361.6 292.43 355.95 297.18 355.6 296.49 354.51 294.35 359.06 290.52 360.98 291.97 361.6 292.43"/><polygon class="cls-7" points="354.79 298.34 350.06 303.99 349.6 303.38 348.14 301.46 351.97 296.9 354.11 297.99 354.79 298.34"/><polygon class="cls-7" points="349.13 305.32 345.44 311.72 344.87 311.2 343.12 309.56 346.09 304.4 348.38 305.1 349.13 305.32"/><polygon class="cls-7" points="344.76 313.2 342.24 320.14 341.59 319.72 339.57 318.42 341.6 312.82 343.98 313.11 344.76 313.2"/><polygon class="cls-7" points="341.82 321.72 340.54 328.99 339.83 328.69 337.62 327.76 338.65 321.89 341.05 321.76 341.82 321.72"/><polygon class="cls-7" points="340.41 330.61 340.42 338 339.68 337.83 337.32 337.28 337.31 331.34 339.67 330.78 340.41 330.61"/><polygon class="cls-7" points="341.85 346.88 341.08 346.85 338.68 346.73 337.64 340.86 339.86 339.92 340.56 339.62 341.85 346.88"/><polygon class="cls-7" points="344.81 355.39 344.04 355.49 341.66 355.79 339.61 350.2 341.63 348.89 342.28 348.46 344.81 355.39"/><polygon class="cls-7" points="349.2 363.26 348.45 363.48 346.16 364.2 343.18 359.04 344.93 357.4 345.5 356.87 349.2 363.26"/><polygon class="cls-7" points="354.88 370.24 354.21 370.59 352.06 371.69 348.22 367.13 349.67 365.2 350.13 364.6 354.88 370.24"/><polygon class="cls-7" points="361.7 376.13 361.09 376.6 359.17 378.04 354.61 374.23 355.69 372.08 356.04 371.39 361.7 376.13"/><polygon class="cls-7" points="369.43 380.74 368.9 381.32 367.27 383.08 362.11 380.1 362.81 377.8 363.03 377.07 369.43 380.74"/><polygon class="cls-7" points="377.85 383.95 377.43 384.61 376.13 386.61 370.53 384.59 370.82 382.2 370.91 381.44 377.85 383.95"/><polygon class="cls-7" points="386.7 385.64 386.39 386.35 385.46 388.57 379.6 387.54 379.47 385.14 379.42 384.37 386.7 385.64"/><polygon class="cls-7" points="395.71 385.78 395.54 386.52 394.99 388.88 389.05 388.88 388.49 386.53 388.32 385.79 395.71 385.78"/><polygon class="cls-7" points="404.59 384.34 404.56 385.11 404.44 387.51 398.57 388.56 397.63 386.34 397.33 385.63 404.59 384.34"/><polygon class="cls-7" points="413.5 384.54 407.9 386.57 406.59 384.57 406.17 383.92 413.1 381.39 413.2 382.16 413.5 384.54"/><polygon class="cls-7" points="421.9 380.03 416.75 383.02 415.11 381.26 414.57 380.69 420.96 377 421.19 377.74 421.9 380.03"/><polygon class="cls-7" points="429.39 374.14 424.84 377.96 422.92 376.52 422.3 376.06 427.95 371.3 428.3 372 429.39 374.14"/><polygon class="cls-7" points="435.75 367.03 431.94 371.59 429.8 370.5 429.1 370.15 433.84 364.5 434.3 365.11 435.75 367.03"/><polygon class="cls-7" points="440.78 358.92 437.81 364.08 435.52 363.38 434.77 363.15 438.46 356.75 439.04 357.29 440.78 358.92"/><polygon class="cls-7" points="444.32 350.07 442.3 355.67 439.92 355.38 439.14 355.28 441.66 348.34 442.32 348.76 444.32 350.07"/><polygon class="cls-7" points="446.28 340.73 445.25 346.6 442.86 346.73 442.07 346.76 443.35 339.5 444.07 339.8 446.28 340.73"/><polygon class="cls-7" points="446.58 331.21 446.59 337.15 444.25 337.69 443.49 337.88 443.48 330.49 444.24 330.67 446.58 331.21"/><polygon class="cls-7" points="446.26 327.63 444.07 328.56 443.34 328.87 442.04 321.6 442.83 321.64 445.22 321.76 446.26 327.63"/><polygon class="cls-7" points="444.28 318.29 442.29 319.59 441.63 320.02 439.09 313.09 439.88 313 442.25 312.7 444.28 318.29"/><polygon class="cls-7" points="440.72 309.45 438.98 311.07 438.41 311.61 434.7 305.22 435.45 304.99 437.73 304.29 440.72 309.45"/><polygon class="cls-7" points="435.67 301.36 434.24 303.27 433.77 303.89 429.01 298.25 429.72 297.88 431.85 296.8 435.67 301.36"/><polygon class="cls-7" points="429.3 294.26 428.22 296.39 427.86 297.09 422.2 292.35 422.82 291.88 424.73 290.44 429.3 294.26"/><polygon class="cls-7" points="421.79 288.38 421.1 290.67 420.86 291.42 414.46 287.74 415 287.16 416.63 285.41 421.79 288.38"/><polygon class="cls-7" points="413.38 283.9 413.08 286.26 412.98 287.05 406.05 284.54 406.47 283.87 407.78 281.87 413.38 283.9"/><polygon class="cls-7" points="404.47 284.11 397.2 282.84 397.51 282.13 398.44 279.92 404.31 280.95 404.43 283.33 404.47 284.11"/><circle class="cls-15" cx="393.24" cy="388.21" r="25.22" transform="translate(-60.5 651.47) rotate(-79.67)"/><circle class="cls-17" cx="393.24" cy="388.21" r="21.82" transform="translate(-24.52 -28.93) rotate(-3.54)"/><path class="cls-7" d="M402.9,388.2a9.66,9.66,0,1,1-9.67-9.65A9.66,9.66,0,0,1,402.9,388.2Z" transform="translate(-1.29 -53.97)"/><path class="cls-7" d="M393.26,400.79a12.59,12.59,0,1,1,12.57-12.6A12.59,12.59,0,0,1,393.26,400.79Zm0-24a11.46,11.46,0,1,0,11.47,11.44A11.47,11.47,0,0,0,393.23,376.75Z" transform="translate(-1.29 -53.97)"/><path class="cls-7" d="M395.27,371a2.05,2.05,0,1,1-2-2A2.05,2.05,0,0,1,395.27,371Z" transform="translate(-1.29 -53.97)"/><path class="cls-7" d="M386.41,372.33a2,2,0,1,1-2.79-.75A2,2,0,0,1,386.41,372.33Z" transform="translate(-1.29 -53.97)"/><path class="cls-7" d="M379.39,377.87a2,2,0,1,1-2.8.75A2,2,0,0,1,379.39,377.87Z" transform="translate(-1.29 -53.97)"/><path class="cls-7" d="M376.08,386.18a2.05,2.05,0,1,1-2.05,2.05A2,2,0,0,1,376.08,386.18Z" transform="translate(-1.29 -53.97)"/><path class="cls-7" d="M377.36,395a2,2,0,1,1-.74,2.8A2.06,2.06,0,0,1,377.36,395Z" transform="translate(-1.29 -53.97)"/><path class="cls-7" d="M382.9,402.06a2,2,0,1,1,.76,2.8A2.06,2.06,0,0,1,382.9,402.06Z" transform="translate(-1.29 -53.97)"/><path class="cls-7" d="M391.21,405.37a2.05,2.05,0,1,1,2.05,2.05A2.05,2.05,0,0,1,391.21,405.37Z" transform="translate(-1.29 -53.97)"/><path class="cls-7" d="M400.07,404.09a2,2,0,1,1,2.8.74A2,2,0,0,1,400.07,404.09Z" transform="translate(-1.29 -53.97)"/><path class="cls-7" d="M407.09,398.54a2,2,0,0,1-.75-2.79,2,2,0,1,1,.75,2.79Z" transform="translate(-1.29 -53.97)"/><path class="cls-7" d="M410.41,390.23a2,2,0,1,1,2-2.05A2,2,0,0,1,410.41,390.23Z" transform="translate(-1.29 -53.97)"/><path class="cls-7" d="M409.12,381.38a2,2,0,1,1,.75-2.8A2,2,0,0,1,409.12,381.38Z" transform="translate(-1.29 -53.97)"/><path class="cls-7" d="M403.58,374.36a2,2,0,1,1-.75-2.8A2.06,2.06,0,0,1,403.58,374.36Z" transform="translate(-1.29 -53.97)"/><rect class="cls-7" x="7.53" y="241.74" width="35.95" height="85.49" transform="translate(-1.64 -53.93) rotate(-0.07)"/><polygon class="cls-7" points="15.03 187.79 7.65 187.8 7.83 187.04 8.36 184.7 14.31 184.69 14.85 187.04 15.03 187.79"/><polygon class="cls-7" points="27.85 187.78 20.46 187.78 20.64 187.03 21.18 184.69 27.13 184.68 27.67 187.02 27.85 187.78"/><polygon class="cls-7" points="40.67 187.76 33.28 187.77 33.46 187.01 34 184.67 39.94 184.66 40.49 187 40.67 187.76"/><polygon class="cls-7" points="33.38 273.26 40.77 273.25 40.59 274 40.05 276.34 34.11 276.35 33.56 274.01 33.38 273.26"/><polygon class="cls-7" points="20.57 273.27 27.95 273.26 27.77 274.02 27.24 276.36 21.29 276.37 20.75 274.03 20.57 273.27"/><polygon class="cls-7" points="7.75 273.29 15.14 273.28 14.96 274.03 14.42 276.38 8.47 276.38 7.93 274.04 7.75 273.29"/><polygon class="cls-7" points="319.26 329.42 366.59 276.15 429.6 276.07 446.56 289.5 458.01 289.48 458 281.22 430.72 260.8 360.93 260.88 307.39 319.13 307.4 329.44 319.26 329.42"/><polygon class="cls-7" points="177.37 329.59 143.41 276.42 83.8 276.49 62.38 306.61 53.49 306.62 53.48 298.35 79.24 261.22 149.03 261.14 189.21 319.27 189.22 329.58 177.37 329.59"/><rect class="cls-7" x="28.08" y="347.06" width="35.59" height="17.72" transform="translate(-1.72 -53.91) rotate(-0.07)"/><rect class="cls-7" x="30.56" y="330.85" width="7.82" height="16.23" transform="translate(-1.7 -53.92) rotate(-0.07)"/><rect class="cls-7" x="38.39" y="335.48" width="5.16" height="11.59" transform="translate(-1.7 -53.92) rotate(-0.07)"/><rect class="cls-7" x="178.65" y="372.9" width="144.4" height="16.6" transform="translate(-1.75 -53.66) rotate(-0.07)"/><rect class="cls-7" x="447.88" y="343.46" width="11.45" height="39.77" transform="translate(-1.73 -53.42) rotate(-0.07)"/><polygon class="cls-7" points="466.14 315.88 458.06 324.6 458.01 287.34 466.1 283.4 466.14 315.88"/><path class="cls-7" d="M473.39,316.77h5.82a6,6,0,0,1,6,6v41.08a6,6,0,0,1-6,6H467.4a0,0,0,0,1,0,0V322.77A6,6,0,0,1,473.39,316.77Z" transform="translate(-1.7 -53.4) rotate(-0.07)"/></g></svg>